<svg xmlns="http://www.w3.org/2000/svg" viewBox="0 0 900 600" preserveAspectRatio="xMidYMid slice">
  <defs>
    <!-- Gradientes para diferentes tonos de madera con mejor contraste -->
    <linearGradient id="woodGradient1" x1="0%" y1="0%" x2="100%" y2="100%">
      <stop offset="0%" style="stop-color:#6B4423;stop-opacity:1" />
      <stop offset="50%" style="stop-color:#8B5A2B;stop-opacity:1" />
      <stop offset="100%" style="stop-color:#6B4423;stop-opacity:1" />
    </linearGradient>
    
    <linearGradient id="woodGradient2" x1="0%" y1="0%" x2="100%" y2="100%">
      <stop offset="0%" style="stop-color:#A0522D;stop-opacity:1" />
      <stop offset="50%" style="stop-color:#CD853F;stop-opacity:1" />
      <stop offset="100%" style="stop-color:#A0522D;stop-opacity:1" />
    </linearGradient>
    
    <linearGradient id="woodGradient3" x1="0%" y1="0%" x2="100%" y2="100%">
      <stop offset="0%" style="stop-color:#D2B48C;stop-opacity:1" />
      <stop offset="50%" style="stop-color:#F4A460;stop-opacity:1" />
      <stop offset="100%" style="stop-color:#D2B48C;stop-opacity:1" />
    </linearGradient>

    <linearGradient id="woodGradient4" x1="0%" y1="0%" x2="100%" y2="100%">
      <stop offset="0%" style="stop-color:#DEB887;stop-opacity:1" />
      <stop offset="50%" style="stop-color:#F5DEB3;stop-opacity:1" />
      <stop offset="100%" style="stop-color:#DEB887;stop-opacity:1" />
    </linearGradient>

    <!-- Patrón de vetas de madera -->
    <pattern id="woodPattern" patternUnits="userSpaceOnUse" width="120" height="80">
      <rect width="120" height="80" fill="url(#woodGradient2)"/>
      <path d="M0,10 Q30,5 60,10 T120,10" stroke="#654321" stroke-width="0.5" fill="none" opacity="0.4"/>
      <path d="M0,25 Q40,20 80,25 T120,25" stroke="#654321" stroke-width="0.5" fill="none" opacity="0.4"/>
      <path d="M0,40 Q35,35 70,40 T120,40" stroke="#654321" stroke-width="0.5" fill="none" opacity="0.4"/>
      <path d="M0,55 Q45,50 90,55 T120,55" stroke="#654321" stroke-width="0.5" fill="none" opacity="0.4"/>
      <path d="M0,70 Q30,65 60,70 T120,70" stroke="#654321" stroke-width="0.5" fill="none" opacity="0.4"/>
    </pattern>

    <!-- Patrón de parquet mejorado -->
    <pattern id="parquetPattern" patternUnits="userSpaceOnUse" width="200" height="200">
      <!-- Tablones horizontales -->
      <rect x="0" y="0" width="100" height="25" fill="url(#woodGradient1)" stroke="#4A3118" stroke-width="0.8"/>
      <rect x="0" y="25" width="100" height="25" fill="url(#woodGradient2)" stroke="#4A3118" stroke-width="0.8"/>
      <rect x="0" y="50" width="100" height="25" fill="url(#woodGradient3)" stroke="#4A3118" stroke-width="0.8"/>
      <rect x="0" y="75" width="100" height="25" fill="url(#woodGradient4)" stroke="#4A3118" stroke-width="0.8"/>
      
      <!-- Tablones verticales -->
      <rect x="100" y="0" width="25" height="100" fill="url(#woodGradient3)" stroke="#4A3118" stroke-width="0.8"/>
      <rect x="125" y="0" width="25" height="100" fill="url(#woodGradient1)" stroke="#4A3118" stroke-width="0.8"/>
      <rect x="150" y="0" width="25" height="100" fill="url(#woodGradient2)" stroke="#4A3118" stroke-width="0.8"/>
      <rect x="175" y="0" width="25" height="100" fill="url(#woodGradient4)" stroke="#4A3118" stroke-width="0.8"/>
      
      <!-- Segunda fila - patrón invertido -->
      <rect x="0" y="100" width="25" height="100" fill="url(#woodGradient2)" stroke="#4A3118" stroke-width="0.8"/>
      <rect x="25" y="100" width="25" height="100" fill="url(#woodGradient4)" stroke="#4A3118" stroke-width="0.8"/>
      <rect x="50" y="100" width="25" height="100" fill="url(#woodGradient1)" stroke="#4A3118" stroke-width="0.8"/>
      <rect x="75" y="100" width="25" height="100" fill="url(#woodGradient3)" stroke="#4A3118" stroke-width="0.8"/>
      
      <rect x="100" y="100" width="100" height="25" fill="url(#woodGradient4)" stroke="#4A3118" stroke-width="0.8"/>
      <rect x="100" y="125" width="100" height="25" fill="url(#woodGradient1)" stroke="#4A3118" stroke-width="0.8"/>
      <rect x="100" y="150" width="100" height="25" fill="url(#woodGradient2)" stroke="#4A3118" stroke-width="0.8"/>
      <rect x="100" y="175" width="100" height="25" fill="url(#woodGradient3)" stroke="#4A3118" stroke-width="0.8"/>
      
      <!-- Añadir vetas sutiles pero más visibles -->
      <g opacity="0.3">
        <path d="M0,12 Q50,8 100,12" stroke="#4A3118" stroke-width="0.4" fill="none"/>
        <path d="M0,37 Q50,33 100,37" stroke="#4A3118" stroke-width="0.4" fill="none"/>
        <path d="M112,0 Q117,50 112,100" stroke="#4A3118" stroke-width="0.4" fill="none"/>
        <path d="M137,0 Q142,50 137,100" stroke="#4A3118" stroke-width="0.4" fill="none"/>
      </g>
    </pattern>
    
    <!-- Filtro para suavizar -->
    <filter id="soften">
      <feGaussianBlur stdDeviation="0.3"/>
    </filter>
  </defs>
  
  <!-- Fondo base de parquet -->
  <rect width="900" height="600" fill="url(#parquetPattern)" filter="url(#soften)"/>
  
  <!-- Área central para mesas - máximo espacio disponible -->
  <rect x="120" y="80" width="660" height="440" fill="url(#woodPattern)" opacity="0.4" rx="20"/>
  
  <!-- ELEMENTOS ARQUITECTÓNICOS EN LOS BORDES -->
  
  <!-- Entrada principal - arriba centro -->
  <g id="entrance">
    <rect x="425" y="0" width="50" height="25" fill="#5D4037" stroke="#3E2723" stroke-width="2"/>
    <rect x="430" y="25" width="40" height="25" fill="#8D6E63" stroke="#3E2723" stroke-width="1"/>
    <text x="450" y="40" text-anchor="middle" font-family="Arial, sans-serif" font-size="9" font-weight="bold" fill="#3E2723">ENTRADA</text>
    <!-- Puerta -->
    <rect x="435" y="27" width="30" height="21" fill="#6D4C41" stroke="#3E2723" stroke-width="1" rx="2"/>
    <circle cx="440" cy="37" r="1" fill="#3E2723"/>
  </g>
  
  <!-- Cocina - esquina superior derecha -->
  <g id="kitchen">
    <rect x="800" y="0" width="100" height="120" fill="#ECEFF1" stroke="#5D4037" stroke-width="2" rx="8"/>
    <rect x="810" y="10" width="80" height="100" fill="#F5F5F5" stroke="#5D4037" stroke-width="1"/>
    <text x="850" y="65" text-anchor="middle" font-family="Arial, sans-serif" font-size="11" font-weight="bold" fill="#5D4037">COCINA</text>
    
    <!-- Elementos de cocina -->
    <rect x="820" y="25" width="15" height="12" fill="#90A4AE" stroke="#5D4037" stroke-width="0.5"/>
    <rect x="840" y="25" width="15" height="12" fill="#90A4AE" stroke="#5D4037" stroke-width="0.5"/>
    <rect x="860" y="25" width="15" height="12" fill="#90A4AE" stroke="#5D4037" stroke-width="0.5"/>
    <rect x="820" y="85" width="60" height="8" fill="#90A4AE" stroke="#5D4037" stroke-width="0.5"/>
  </g>
  
  <!-- Bar - lado derecho -->
  <g id="bar">
    <rect x="800" y="200" width="100" height="40" fill="#5D4037" stroke="#3E2723" stroke-width="2" rx="8"/>
    <rect x="810" y="210" width="80" height="20" fill="#8D6E63" stroke="#3E2723" stroke-width="1"/>
    <text x="850" y="225" text-anchor="middle" font-family="Arial, sans-serif" font-size="10" font-weight="bold" fill="#F5F5F5">BAR</text>
    
    <!-- Taburetes del bar - más compactos -->
    <circle cx="820" cy="255" r="5" fill="#5D4037" stroke="#3E2723" stroke-width="1"/>
    <rect x="818" y="260" width="4" height="10" fill="#3E2723"/>
    <circle cx="840" cy="255" r="5" fill="#5D4037" stroke="#3E2723" stroke-width="1"/>
    <rect x="838" y="260" width="4" height="10" fill="#3E2723"/>
    <circle cx="860" cy="255" r="5" fill="#5D4037" stroke="#3E2723" stroke-width="1"/>
    <rect x="858" y="260" width="4" height="10" fill="#3E2723"/>
    <circle cx="880" cy="255" r="5" fill="#5D4037" stroke="#3E2723" stroke-width="1"/>
    <rect x="878" y="260" width="4" height="10" fill="#3E2723"/>
  </g>
  
  <!-- Baños - esquina inferior izquierda -->
  <g id="bathrooms">
    <!-- Baño 1 -->
    <rect x="0" y="480" width="80" height="60" fill="#CFD8DC" stroke="#5D4037" stroke-width="2" rx="6"/>
    <rect x="8" y="488" width="64" height="44" fill="#ECEFF1" stroke="#5D4037" stroke-width="1"/>
    <text x="40" y="515" text-anchor="middle" font-family="Arial, sans-serif" font-size="8" font-weight="bold" fill="#5D4037">BAÑO H</text>
    <circle cx="40" cy="525" r="5" fill="none" stroke="#5D4037" stroke-width="1"/>
    <path d="M40,520 L40,530 M35,525 L45,525" stroke="#5D4037" stroke-width="1"/>
    
    <!-- Baño 2 -->
    <rect x="0" y="540" width="80" height="60" fill="#CFD8DC" stroke="#5D4037" stroke-width="2" rx="6"/>
    <rect x="8" y="548" width="64" height="44" fill="#ECEFF1" stroke="#5D4037" stroke-width="1"/>
    <text x="40" y="575" text-anchor="middle" font-family="Arial, sans-serif" font-size="8" font-weight="bold" fill="#5D4037">BAÑO M</text>
    <circle cx="40" cy="585" r="5" fill="none" stroke="#5D4037" stroke-width="1"/>
    <path d="M40,580 L40,590 M35,585 L45,585" stroke="#5D4037" stroke-width="1"/>
  </g>
  
  <!-- Almacén/Depósito - esquina inferior derecha -->
  <g id="storage">
    <rect x="800" y="480" width="100" height="120" fill="#E8EAF6" stroke="#5D4037" stroke-width="2" rx="6"/>
    <rect x="810" y="490" width="80" height="100" fill="#F3E5F5" stroke="#5D4037" stroke-width="1"/>
    <text x="850" y="545" text-anchor="middle" font-family="Arial, sans-serif" font-size="10" font-weight="bold" fill="#5D4037">ALMACÉN</text>
    
    <!-- Estanterías -->
    <rect x="820" y="505" width="60" height="4" fill="#8D6E63" stroke="#5D4037" stroke-width="0.5"/>
    <rect x="820" y="520" width="60" height="4" fill="#8D6E63" stroke="#5D4037" stroke-width="0.5"/>
    <rect x="820" y="535" width="60" height="4" fill="#8D6E63" stroke="#5D4037" stroke-width="0.5"/>
    <rect x="820" y="565" width="60" height="4" fill="#8D6E63" stroke="#5D4037" stroke-width="0.5"/>
  </g>
  
  <!-- Plantas decorativas en esquinas no ocupadas -->
  <g id="plants">
    <!-- Planta esquina superior izquierda -->
    <circle cx="50" cy="50" r="12" fill="#4CAF50" opacity="0.8"/>
    <rect x="46" y="62" width="8" height="15" fill="#5D4037"/>
    
    <!-- Planta lado izquierdo -->
    <circle cx="50" cy="300" r="10" fill="#4CAF50" opacity="0.8"/>
    <rect x="47" y="310" width="6" height="12" fill="#5D4037"/>
  </g>
  
  <!-- Ventanas - en los lados -->
  <g id="windows">
    <!-- Ventana izquierda -->
    <rect x="0" y="200" width="15" height="80" fill="#81D4FA" stroke="#5D4037" stroke-width="2"/>
    <line x1="7" y1="200" x2="7" y2="280" stroke="#5D4037" stroke-width="1"/>
    <line x1="0" y1="240" x2="15" y2="240" stroke="#5D4037" stroke-width="1"/>
    
    <!-- Ventana izquierda inferior -->
    <rect x="0" y="350" width="15" height="80" fill="#81D4FA" stroke="#5D4037" stroke-width="2"/>
    <line x1="7" y1="350" x2="7" y2="430" stroke="#5D4037" stroke-width="1"/>
    <line x1="0" y1="390" x2="15" y2="390" stroke="#5D4037" stroke-width="1"/>
  </g>
  
  <!-- Pasillos de circulación muy sutiles -->
  <g id="walkways" opacity="0.06">
    <!-- Pasillo principal horizontal -->
    <rect x="120" y="300" width="660" height="30" fill="#3E2723"/>
    <!-- Pasillo vertical -->
    <rect x="400" y="80" width="30" height="440" fill="#3E2723"/>
  </g>
  
  <!-- Efectos de sombra para dar profundidad -->
  <g id="shadows" opacity="0.12">
    <ellipse cx="850" cy="125" rx="50" ry="6" fill="#000000"/>
    <ellipse cx="850" cy="245" rx="50" ry="6" fill="#000000"/>
    <ellipse cx="40" cy="545" rx="40" ry="4" fill="#000000"/>
    <ellipse cx="40" cy="605" rx="40" ry="4" fill="#000000"/>
    <ellipse cx="850" cy="605" rx="50" ry="6" fill="#000000"/>
  </g>
  
  <!-- Zona central destacada para mesas - área libre maximizada -->
  <rect x="150" y="120" width="600" height="360" fill="url(#woodGradient4)" opacity="0.25" rx="15"/>
  
  <!-- Marcadores sutiles de zonas -->
  <g id="zone-markers" opacity="0.1">
    <text x="450" y="100" text-anchor="middle" font-family="Arial, sans-serif" font-size="12" fill="#5D4037">ÁREA DE MESAS</text>
  </g>
</svg>
